# xmcd
#
# Track frame offsets:
#	150
#	11152
#	25532
#	35882
#	48697
#	62522
#	72925
#	88365
#	101355
#	120892
#	134725
#	147307
#	159327
#	174612
#
# Disc length: 2492 seconds
#
# Revision: 0
# Processed by: cddbd v1.5.2PL0 Copyright (c) Steve Scherf et al.
# Submitted via: EasyCDDAExtractor 15.2.5.1
#
DISCID=c309ba0e
DTITLE=Peggy Rains - Living The Dream
DYEAR=1999
DGENRE=country
TTITLE0=After The Fact
TTITLE1=Here We Go Again
TTITLE2=Detour
TTITLE3=I'll Never Be Free (Feat Billy Parker)
TTITLE4=Alright, Okay, You Win
TTITLE5=Till There's Not A Cow In Texas
TTITLE6=Too Many Rivers
TTITLE7=Ain't Nobody's Business But My Own
TTITLE8=Last Cheater's Waltz
TTITLE9=Good Hearted Woman
TTITLE10=Nevertheless
TTITLE11=Sugartime
TTITLE12=You Touched Me
TTITLE13=I Saw The Light
EXTD=
EXTT0=
EXTT1=
EXTT2=
EXTT3=
EXTT4=
EXTT5=
EXTT6=
EXTT7=
EXTT8=
EXTT9=
EXTT10=
EXTT11=
EXTT12=
EXTT13=
PLAYORDER=
